HIERARCHY
ROOT hip
{
  OFFSET -97.0187 66.8387 -274.327
  CHANNELS 6 Xposition Yposition Zposition Zrotation Xrotation Yrotation
  JOINT abdomen
  {
    OFFSET 0 20.6881 -0.73152
    CHANNELS 3 Zrotation Xrotation Yrotation
    JOINT chest
    {
      OFFSET 0 11.7043 -0.48768
      CHANNELS 3 Zrotation Xrotation Yrotation
      JOINT neck
      {
        OFFSET 0 22.1894 -2.19456
        CHANNELS 3 Zrotation Xrotation Yrotation
        JOINT head
        {
          OFFSET -0.24384 7.07133 1.2192
          CHANNELS 3 Zrotation Xrotation Yrotation
          JOINT leftEye
          {
            OFFSET 4.14528 8.04674 8.04672
            CHANNELS 3 Zrotation Xrotation Yrotation
            End Site
            {
              OFFSET 1 0 0
            }
          }
          JOINT rightEye
          {
            OFFSET -3.6576 8.04674 8.04672
            CHANNELS 3 Zrotation Xrotation Yrotation
            End Site
            {
              OFFSET 1 0 0
            }
          }
        }
      }
      JOINT rCollar
      {
        OFFSET -2.68224 19.2634 -4.8768
        CHANNELS 3 Zrotation Xrotation Yrotation
        JOINT rShldr
        {
          OFFSET -8.77824 -1.95073 1.46304
          CHANNELS 3 Zrotation Xrotation Yrotation
          JOINT rForeArm
          {
            OFFSET -28.1742 -1.7115 0.48768
            CHANNELS 3 Zrotation Xrotation Yrotation
            JOINT rHand
            {
              OFFSET -22.5879 0.773209 7.07136
              CHANNELS 3 Zrotation Xrotation Yrotation
              JOINT rThumb1
              {
                OFFSET -1.2192 -0.487915 3.41376
                CHANNELS 3 Zrotation Xrotation Yrotation
                JOINT rThumb2
                {
                  OFFSET -3.37035 -0.52449 3.41376
                  CHANNELS 3 Zrotation Xrotation Yrotation
                  End Site
                  {
                    OFFSET -1.78271 -1.18214 1.43049
                  }
                }
              }
              JOINT rIndex1
              {
                OFFSET -7.75947 0.938293 5.60832
                CHANNELS 3 Zrotation Xrotation Yrotation
                JOINT rIndex2
                {
                  OFFSET -2.54057 -0.884171 1.56538
                  CHANNELS 3 Zrotation Xrotation Yrotation
                  End Site
                  {
                    OFFSET -1.62519 -0.234802 1.16502
                  }
                }
              }
              JOINT rMid1
              {
                OFFSET -8.24714 1.18213 3.41376
                CHANNELS 3 Zrotation Xrotation Yrotation
                JOINT rMid2
                {
                  OFFSET -3.10165 -0.590103 1.0647
                  CHANNELS 3 Zrotation Xrotation Yrotation
                  End Site
                  {
                    OFFSET -2.48547 -0.328903 0.83742
                  }
                }
              }
              JOINT rRing1
              {
                OFFSET -8.82822 0.546677 1.51678
                CHANNELS 3 Zrotation Xrotation Yrotation
                JOINT rRing2
                {
                  OFFSET -2.60934 -0.819778 -0.0198488
                  CHANNELS 3 Zrotation Xrotation Yrotation
                  End Site
                  {
                    OFFSET -2.33842 -0.294052 0.168128
                  }
                }
              }
              JOINT rPinky1
              {
                OFFSET -8.27202 -0.0477905 -0.4584
                CHANNELS 3 Zrotation Xrotation Yrotation
                JOINT rPinky2
                {
                  OFFSET -1.82734 -0.647385 -0.700984
                  CHANNELS 3 Zrotation Xrotation Yrotation
                  End Site
                  {
                    OFFSET -1.69225 -0.51767 -0.607171
                  }
                }
              }
            }
          }
        }
      }
      JOINT lCollar
      {
        OFFSET 2.68224 19.2634 -4.8768
        CHANNELS 3 Zrotation Xrotation Yrotation
        JOINT lShldr
        {
          OFFSET 8.77824 -1.95073 1.46304
          CHANNELS 3 Zrotation Xrotation Yrotation
          JOINT lForeArm
          {
            OFFSET 28.1742 -1.7115 0.48768
            CHANNELS 3 Zrotation Xrotation Yrotation
            JOINT lHand
            {
              OFFSET 22.5879 0.773209 7.07136
              CHANNELS 3 Zrotation Xrotation Yrotation
              JOINT lThumb1
              {
                OFFSET 1.2192 -0.487915 3.41376
                CHANNELS 3 Zrotation Xrotation Yrotation
                JOINT lThumb2
                {
                  OFFSET 3.37035 -0.52449 3.41376
                  CHANNELS 3 Zrotation Xrotation Yrotation
                  End Site
                  {
                    OFFSET 1.78271 -1.18214 1.43049
                  }
                }
              }
              JOINT lIndex1
              {
                OFFSET 7.75947 0.938293 5.60832
                CHANNELS 3 Zrotation Xrotation Yrotation
                JOINT lIndex2
                {
                  OFFSET 2.54057 -0.884171 1.56538
                  CHANNELS 3 Zrotation Xrotation Yrotation
                  End Site
                  {
                    OFFSET 1.62519 -0.234802 1.16502
                  }
                }
              }
              JOINT lMid1
              {
                OFFSET 8.24714 1.18213 3.41376
                CHANNELS 3 Zrotation Xrotation Yrotation
                JOINT lMid2
                {
                  OFFSET 3.10165 -0.590103 1.0647
                  CHANNELS 3 Zrotation Xrotation Yrotation
                  End Site
                  {
                    OFFSET 2.48547 -0.328903 0.83742
                  }
                }
              }
              JOINT lRing1
              {
                OFFSET 8.82822 0.546677 1.51678
                CHANNELS 3 Zrotation Xrotation Yrotation
                JOINT lRing2
                {
                  OFFSET 2.60934 -0.819778 -0.0198488
                  CHANNELS 3 Zrotation Xrotation Yrotation
                  End Site
                  {
                    OFFSET 2.33842 -0.294052 0.168128
                  }
                }
              }
              JOINT lPinky1
              {
                OFFSET 8.27202 -0.0477905 -0.4584
                CHANNELS 3 Zrotation Xrotation Yrotation
                JOINT lPinky2
                {
                  OFFSET 1.82734 -0.647385 -0.700984
                  CHANNELS 3 Zrotation Xrotation Yrotation
                  End Site
                  {
                    OFFSET 1.69225 -0.51767 -0.607171
                  }
                }
              }
            }
          }
        }
      }
    }
  }
  JOINT rButtock
  {
    OFFSET -8.77824 4.35084 1.2192
    CHANNELS 3 Zrotation Xrotation Yrotation
    JOINT rThigh
    {
      OFFSET 0 -1.70687 -2.19456
      CHANNELS 3 Zrotation Xrotation Yrotation
      JOINT rShin
      {
        OFFSET 0 -36.8199 0.73152
        CHANNELS 3 Zrotation Xrotation Yrotation
        JOINT rFoot
        {
          OFFSET 0.73152 -45.1104 -5.12064
          CHANNELS 3 Zrotation Xrotation Yrotation
          End Site
          {
            OFFSET -1.1221 -3.69964 12.103
          }
        }
      }
    }
  }
  JOINT lButtock
  {
    OFFSET 8.77824 4.35084 1.2192
    CHANNELS 3 Zrotation Xrotation Yrotation
    JOINT lThigh
    {
      OFFSET 0 -1.70687 -2.19456
      CHANNELS 3 Zrotation Xrotation Yrotation
      JOINT lShin
      {
        OFFSET 0 -36.8199 0.73152
        CHANNELS 3 Zrotation Xrotation Yrotation
        JOINT lFoot
        {
          OFFSET -0.73152 -45.1104 -5.12064
          CHANNELS 3 Zrotation Xrotation Yrotation
          End Site
          {
            OFFSET 1.1221 -3.69964 12.103
          }
        }
      }
    }
  }
}
MOTION
Frames:	8
Frame Time:	0.00833333
96.0717 63.531 229.238 -1.19746 0.00337708 0.0224832 1.57502 -0.00270812 0.0428957 0.434161 0.00151568 0.0751864 -1.88467e-014 -7.95139e-016 -4.47266e-016 -5.61287e-014 3.18055e-015 -1.29365e-015 -0 0 0 -0 0 0 -9.4438e-015 1.86361e-017 -9.93923e-017 -1.96091e-013 1.05604e-016 -4.37326e-015 -3.40737e-012 1.03368e-012 -4.77083e-014 -3.89876e-011 -9.57844e-013 -9.95514e-013 -9.19673e-011 1.66372e-013 -2.22957e-012 -1.58832e-010 2.8625e-013 -3.85483e-012 -9.19642e-011 1.66184e-013 -2.24547e-012 7.73091 5.47488 0.417314 -9.19676e-011 1.66184e-013 -2.22957e-012 2.90554 0.965183 0.102902 -9.19665e-011 1.65786e-013 -2.23036e-012 10.2786 0.731801 0.0259123 -9.19747e-011 1.7016e-013 -2.22639e-012 2.22167 -0.733487 -0.20892 -9.54075e-015 1.78596e-017 -3.97569e-016 -2.00004e-013 2.23633e-016 -6.36111e-015 -3.40647e-012 -1.01042e-012 -6.04305e-014 -3.89963e-011 1.08902e-012 -9.57347e-013 -9.19778e-011 1.72413e-013 -2.22639e-012 -1.58829e-010 2.98972e-013 -3.83893e-012 -9.19828e-011 1.7334e-013 -2.21367e-012 -7.73091 5.47488 -0.417314 -9.19784e-011 1.72346e-013 -2.22639e-012 -2.90554 0.965183 -0.102902 -9.19835e-011 1.72346e-013 -2.22559e-012 -10.2786 0.731801 -0.0259123 -9.19715e-011 1.73738e-013 -2.23593e-012 -2.22167 -0.733487 0.20892 -2.03217e-016 0 -3.88251e-019 1.70474 -6.60401 -0.159328 0.00258763 6.39965 0.0733689 -0.52791 0.199751 0.0640769 2.03217e-016 0 3.88251e-019 0.692134 -1.9236 0.00557977 0.00917665 -2.07857 0.0757382 0.502844 3.99746 -0.138938 
96.3214 61.106 228.236 -5.34487 5.98615 43.4747 1.98984 4.66498 -2.17903 1.39637 -2.454 -0.437241 -0.438118 0.35614 0.726436 -0.807873 -11.0153 0.728633 -0 0 0 -0 0 0 -4.20097e-014 2.4141e-014 -3.21996e-014 21.0526 8.93107 -10.9423 -12.179 -9.13407 13.5295 0.0225998 -3.33569 -0.465934 2.18426e-010 1.94622e-010 1.61701e-010 3.75133e-010 3.36375e-010 2.81667e-010 2.18428e-010 1.94624e-010 1.61685e-010 7.73091 5.47488 0.417314 2.18425e-010 1.94623e-010 1.61701e-010 2.90554 0.965183 0.102902 2.1843e-010 1.94624e-010 1.61699e-010 10.2786 0.731801 0.0259123 2.1842e-010 1.94627e-010 1.61704e-010 2.22167 -0.733487 -0.20892 -4.20825e-014 2.41405e-014 -3.24683e-014 -21.4692 16.9659 -1.60649 -0.610122 16.5598 40.5579 0.000288458 -0.36964 0.0519766 -1.09339e-010 -6.56291e-010 -6.27166e-011 -1.90467e-010 -1.1242e-009 -1.06971e-010 -1.09343e-010 -6.56289e-010 -6.27047e-011 -7.73091 5.47488 -0.417314 -1.09339e-010 -6.56292e-010 -6.27176e-011 -2.90554 0.965183 -0.102902 -1.09344e-010 -6.56291e-010 -6.27156e-011 -10.2786 0.731801 -0.0259123 -1.09334e-010 -6.56289e-010 -6.27262e-011 -2.22167 -0.733487 0.20892 -2.03217e-016 0 -3.88251e-019 2.08554 -26.6466 -3.00932 -0.139481 24.1163 0.290748 -1.29699 -2.53624 -3.28169 2.03217e-016 0 3.88251e-019 -0.99593 -3.79382 -1.94544 -0.0547442 11.9435 -0.152595 0.8569 7.41503 -1.27188 
95.7638 61.2125 226.862 -14.9898 0.348947 88.8534 2.76613 9.53611 -4.59959 2.37776 -5.04565 -0.988393 -0.903634 0.723404 1.49484 -1.31783 -22.5964 1.61025 -0 0 0 -0 0 0 -7.79823e-014 5.10957e-014 -7.03605e-014 47.1044 17.3139 -23.512 -20.4207 -17.1419 28.9121 -0.0128866 -6.86161 -0.963822 5.51688e-010 3.95514e-010 3.33477e-010 9.48489e-010 6.83564e-010 5.80884e-010 5.51688e-010 3.95519e-010 3.33461e-010 7.73091 5.47488 0.417314 5.51685e-010 3.95518e-010 3.33476e-010 2.90554 0.965183 0.102902 5.51694e-010 3.9552e-010 3.33474e-010 10.2786 0.731801 0.0259123 5.51683e-010 3.95521e-010 3.33479e-010 2.22167 -0.733487 -0.20892 -7.80284e-014 5.10955e-014 -7.05965e-014 -42.8522 34.9084 -3.92289 -16.5825 7.2925 82.3254 0.00167894 -0.699516 0.0983936 -1.37489e-010 -1.35875e-009 -1.06543e-010 -2.40976e-010 -2.32737e-009 -1.81181e-010 -1.37492e-010 -1.35875e-009 -1.06532e-010 -7.73091 5.47488 -0.417314 -1.37488e-010 -1.35875e-009 -1.06545e-010 -2.90554 0.965183 -0.102902 -1.37495e-010 -1.35875e-009 -1.06542e-010 -10.2786 0.731801 -0.0259123 -1.37486e-010 -1.35875e-009 -1.06553e-010 -2.22167 -0.733487 0.20892 -2.03217e-016 0 -3.88251e-019 -0.722027 -47.7131 -8.02454 -0.491202 42.8433 0.638492 -2.45553 -5.3555 -6.83661 2.03217e-016 0 3.88251e-019 -2.97115 -5.60205 -4.06977 0.00865929 26.5363 -0.431278 1.38826 11.0926 -2.50347 
95.2613 61.3458 225.437 -16.2078 -15.3878 126.832 3.93064 13.9157 -6.80173 3.18814 -7.36284 -1.47304 -1.34144 1.06773 2.17964 -1.44594 -33.0223 2.55927 -0 0 0 -0 0 0 -1.07142e-013 7.23856e-014 -9.64001e-014 73.4575 22.7618 -35.5538 -24.0806 -21.1805 43.652 -0.0970792 -10.0044 -1.41699 8.39213e-010 5.83533e-010 4.89563e-010 1.44306e-009 1.00855e-009 8.5271e-010 8.39212e-010 5.83539e-010 4.89547e-010 7.73091 5.47488 0.417314 8.3921e-010 5.83538e-010 4.89561e-010 2.90554 0.965183 0.102902 8.39222e-010 5.83541e-010 4.89558e-010 10.2786 0.731801 0.0259123 8.3921e-010 5.8354e-010 4.89564e-010 2.22167 -0.733487 -0.20892 -1.07166e-013 7.23857e-014 -9.66097e-014 -60.1634 50.6888 -7.28794 -22.4186 -22.931 101.842 0.00287763 -1.10892 0.155956 -1.4406e-010 -1.96922e-009 -1.83697e-010 -2.53744e-010 -3.3732e-009 -3.13235e-010 -1.44063e-010 -1.96921e-009 -1.83687e-010 -7.73091 5.47488 -0.417314 -1.4406e-010 -1.96922e-009 -1.837e-010 -2.90554 0.965183 -0.102902 -1.44066e-010 -1.96922e-009 -1.83696e-010 -10.2786 0.731801 -0.0259123 -1.44059e-010 -1.96922e-009 -1.83707e-010 -2.22167 -0.733487 0.20892 -2.03217e-016 0 -3.88251e-019 -10.6279 -65.6327 -19.0819 -1.18961 59.544 1.28301 -3.79608 -7.89896 -10.06 2.03217e-016 0 3.88251e-019 -4.75636 -7.5015 -5.88521 0.230762 39.9851 -0.782108 1.98215 14.2283 -3.61764 
94.754 61.528 223.9 -8.2541 -27.5531 154.839 5.27066 17.1495 -8.29057 3.66733 -8.99612 -1.78066 -1.69195 1.35534 2.65514 -1.36972 -40.5843 3.32385 -0 0 0 -0 0 0 -1.19267e-013 7.95137e-014 -9.21367e-014 92.9127 25.0774 -43.5425 -25.2227 -21.5824 53.75 -0.18585 -12.1919 -1.74007 1.0124e-009 7.39365e-010 6.06424e-010 1.74068e-009 1.27804e-009 1.05606e-009 1.0124e-009 7.39372e-010 6.06408e-010 7.73091 5.47488 0.417314 1.0124e-009 7.3937e-010 6.0642e-010 2.90554 0.965183 0.102902 1.01241e-009 7.39374e-010 6.06417e-010 10.2786 0.731801 0.0259123 1.0124e-009 7.39373e-010 6.06424e-010 2.22167 -0.733487 -0.20892 -1.19282e-013 7.95139e-014 -9.23355e-014 -70.6909 61.2756 -11.055 -24.2209 -49.1075 102.578 0.00361757 -1.71712 0.241398 -9.66857e-011 -2.3497e-009 -3.44168e-010 -1.7216e-010 -4.02569e-009 -5.89899e-010 -9.66877e-011 -2.34969e-009 -3.44158e-010 -7.73091 5.47488 -0.417314 -9.66848e-011 -2.3497e-009 -3.44171e-010 -2.90554 0.965183 -0.102902 -9.66911e-011 -2.3497e-009 -3.44166e-010 -10.2786 0.731801 -0.0259123 -9.66845e-011 -2.3497e-009 -3.44177e-010 -2.22167 -0.733487 0.20892 -2.03217e-016 0 -3.88251e-019 -32.7914 -75.9952 -41.7277 -2.37772 71.1815 2.42131 -4.9407 -9.85273 -12.3779 2.03217e-016 0 3.88251e-019 -5.82676 -9.65759 -6.90547 0.583322 50.5756 -1.18862 2.41424 16.0304 -4.3624 
94.2912 61.8645 222.091 -3.02366 -31.197 167.073 6.51083 18.8613 -8.66988 3.71904 -9.66961 -1.83571 -1.90776 1.56107 2.85073 -1.49496 -44.2015 3.51515 -0 0 0 -0 0 0 -9.76287e-014 6.32369e-014 -3.67612e-014 99.9239 25.7708 -44.8244 -25.3926 -20.9098 56.8547 -0.226877 -13.0301 -1.86596 1.00002e-009 8.63943e-010 6.79754e-010 1.71847e-009 1.49372e-009 1.18297e-009 1.00002e-009 8.6395e-010 6.79739e-010 7.73091 5.47488 0.417314 1.00002e-009 8.63948e-010 6.7975e-010 2.90554 0.965183 0.102902 1.00003e-009 8.63951e-010 6.79745e-010 10.2786 0.731801 0.0259123 1.00002e-009 8.6395e-010 6.79754e-010 2.22167 -0.733487 -0.20892 -9.76557e-014 6.32371e-014 -3.69767e-014 -75.8008 64.9424 -11.7169 -28.8192 -58.4679 94.827 0.00623747 -2.63585 0.370573 4.94002e-011 -2.42478e-009 -6.96523e-010 8.20117e-011 -4.15616e-009 -1.19926e-009 4.93979e-011 -2.42477e-009 -6.96514e-010 -7.73091 5.47488 -0.417314 4.94008e-011 -2.42478e-009 -6.96525e-010 -2.90554 0.965183 -0.102902 4.93955e-011 -2.42477e-009 -6.96521e-010 -10.2786 0.731801 -0.0259123 4.94028e-011 -2.42477e-009 -6.96531e-010 -2.22167 -0.733487 0.20892 -2.03217e-016 0 -3.88251e-019 -46.5011 -78.3866 -55.7768 -3.35906 75.7453 3.40955 -5.5146 -11.0495 -13.3638 2.03217e-016 0 3.88251e-019 -5.72559 -12.1404 -6.78932 0.92199 57.1857 -1.52872 2.48713 16.0007 -4.56874 
93.8121 62.0289 220.458 -4.51991 -30.52 165.751 7.57955 19.5014 -8.21583 3.4747 -9.65806 -1.70818 -2.02514 1.70861 2.84568 -1.91818 -45.0042 3.17026 -0 0 0 -0 0 0 -5.23451e-014 3.04128e-014 5.47093e-014 97.669 25.7618 -41.1747 -25.0501 -20.3186 55.133 -0.22105 -12.9056 -1.84725 8.56321e-010 9.6554e-010 7.21448e-010 1.4699e-009 1.66983e-009 1.25435e-009 8.56322e-010 9.65544e-010 7.21434e-010 7.73091 5.47488 0.417314 8.56319e-010 9.65544e-010 7.21445e-010 2.90554 0.965183 0.102902 8.56321e-010 9.65544e-010 7.21438e-010 10.2786 0.731801 0.0259123 8.56316e-010 9.65546e-010 7.2145e-010 2.22167 -0.733487 -0.20892 -5.23993e-014 3.04129e-014 5.44577e-014 -78.5259 63.7183 -8.71066 -30.0516 -55.2379 90.8006 0.0143063 -3.77479 0.531098 2.6489e-010 -2.28091e-009 -1.18235e-009 4.57532e-010 -3.9124e-009 -2.04006e-009 2.64887e-010 -2.28091e-009 -1.18235e-009 -7.73091 5.47488 -0.417314 2.6489e-010 -2.28092e-009 -1.18236e-009 -2.90554 0.965183 -0.102902 2.64886e-010 -2.28091e-009 -1.18235e-009 -10.2786 0.731801 -0.0259123 2.64895e-010 -2.28091e-009 -1.18236e-009 -2.22167 -0.733487 0.20892 -2.03217e-016 0 -3.88251e-019 -36.3168 -77.386 -45.9728 -3.21614 75.2646 3.32654 -5.59888 -11.7302 -13.3802 2.03217e-016 0 3.88251e-019 -4.67695 -14.8707 -5.84689 1.15305 60.9528 -1.73728 2.28532 14.6639 -4.38445 
93.3391 62.1735 218.788 -8.57596 -28.1368 159.033 8.52189 19.6752 -7.40594 3.12165 -9.3786 -1.50313 -2.1092 1.83757 2.73906 -2.45299 -44.608 2.57931 -0 0 0 -0 0 0 -1.34713e-014 -3.3053e-015 1.46717e-013 91.8827 25.1421 -35.5482 -24.3909 -19.5499 51.5187 -0.197402 -12.4181 -1.77404 7.00859e-010 1.03585e-009 7.32272e-010 1.20135e-009 1.79187e-009 1.27244e-009 7.00863e-010 1.03586e-009 7.3226e-010 7.73091 5.47488 0.417314 7.00858e-010 1.03586e-009 7.32269e-010 2.90554 0.965183 0.102902 7.00854e-010 1.03585e-009 7.3226e-010 10.2786 0.731801 0.0259123 7.00853e-010 1.03586e-009 7.32275e-010 2.22167 -0.733487 -0.20892 -1.35519e-014 -3.30522e-015 1.46431e-013 -79.4061 60.3325 -5.07524 -28.4216 -47.3487 89.8493 0.0281375 -4.95022 0.697341 4.71043e-010 -2.02296e-009 -1.60119e-009 8.16801e-010 -3.4731e-009 -2.76504e-009 4.71039e-010 -2.02296e-009 -1.60119e-009 -7.73091 5.47488 -0.417314 4.71042e-010 -2.02297e-009 -1.60119e-009 -2.90554 0.965183 -0.102902 4.7104e-010 -2.02297e-009 -1.60119e-009 -10.2786 0.731801 -0.0259123 4.71051e-010 -2.02296e-009 -1.6012e-009 -2.22167 -0.733487 0.20892 -2.03217e-016 0 -3.88251e-019 -21.4741 -74.1851 -31.4662 -2.61327 72.7548 2.80657 -5.47731 -12.2132 -13.0224 2.03217e-016 0 3.88251e-019 -3.18293 -17.7913 -4.56632 1.32283 63.5531 -1.87881 1.98168 12.767 -4.01524 
